<?xml version="1.0" encoding="iso-8859-1"?>
<!-- Generator: Adobe Illustrator 19.0.0, SVG Export Plug-In . SVG Version: 6.00 Build 0)  -->
<svg version="1.1" id="Capa_1" xmlns="http://www.w3.org/2000/svg" xmlns:xlink="http://www.w3.org/1999/xlink" x="0px" y="0px"
	 viewBox="0 0 512 512" style="enable-background:new 0 0 512 512;" xml:space="preserve">
<path style="fill:#4398D1;" d="M407.864,216.949c-0.069-91.058-73.945-164.821-165.012-164.751
	C151.795,52.267,78.032,126.143,78.102,217.21c0.043,56.077,28.585,108.284,75.759,138.587
	c17.651,11.446,28.325,31.032,28.377,52.068l0,0v43.39c0,14.379,11.655,26.034,26.034,26.034h69.424
	c14.379,0,26.034-11.655,26.034-26.034v-43.39l0,0c-0.156-21.001,10.414-40.63,28.03-52.068
	C379.14,325.519,407.83,273.182,407.864,216.949z"/>
<path style="fill:#3E8CC7;" d="M342.78,85.738c-7.637,164.187-92.767,275.786-160.542,339.482v26.034
	c0,14.379,11.655,26.034,26.034,26.034h69.424c14.379,0,26.034-11.655,26.034-26.034v-43.39
	c-0.156-21.001,10.414-40.63,28.03-52.068c76.705-49.083,99.094-151.049,50.011-227.753
	C371.356,111.764,358.157,97.445,342.78,85.738z"/>
<polygon style="fill:#C95994;" points="251.661,260.339 277.695,329.763 234.305,329.763 208.271,260.339 "/>
<g>
	<path style="fill:#FFA83D;" d="M459.932,78.102L459.932,78.102c-2.951-17.807-16.905-31.761-34.712-34.712l0,0
		c17.807-2.951,31.761-16.905,34.712-34.712l0,0c2.951,17.807,16.905,31.761,34.712,34.712l0,0
		C476.837,46.34,462.883,60.295,459.932,78.102z"/>
	<path style="fill:#FFA83D;" d="M52.068,477.288L52.068,477.288c-2.951-17.807-16.905-31.761-34.712-34.712l0,0
		c17.807-2.951,31.761-16.905,34.712-34.712l0,0c2.951,17.807,16.905,31.761,34.712,34.712l0,0
		C68.972,445.527,55.018,459.481,52.068,477.288z"/>
	<path style="fill:#FFA83D;" d="M152.645,414.199c-5.554-2.517-10.934-5.294-16.141-8.157l8.678-15.186
		c4.86,2.777,9.806,5.294,14.839,7.637L152.645,414.199z M334.883,413.418l-7.463-15.707c5.033-2.43,9.98-5.033,14.753-7.723
		l8.678,15.013c-4.773,2.864-10.153,5.814-15.62,8.418H334.883z M121.492,396.496c-4.946-3.384-9.893-7.029-14.492-10.761
		l10.934-13.538c4.252,3.471,8.678,6.856,13.277,9.98L121.492,396.496z M366.818,395.368l-9.893-14.319
		c4.599-3.124,8.678-6.508,13.277-9.98l11.021,13.364c-4.946,3.818-9.806,7.463-14.753,10.934L366.818,395.368z M93.462,373.76
		c-4.339-4.165-8.678-8.678-12.583-13.017l13.017-11.455c3.645,4.079,7.55,8.157,11.542,11.976L93.462,373.76z M394.674,372.372
		l-12.843-12.409c3.992-3.905,7.897-7.984,11.455-12.062l13.104,11.368c-3.558,4.513-7.723,8.938-12.062,13.104H394.674z
		 M69.424,347.119c-3.645-4.86-7.116-9.893-10.24-14.926l14.753-9.199c2.864,4.686,6.075,9.285,9.372,13.711L69.424,347.119z
		 M418.278,345.47l-13.972-10.24c3.298-4.513,6.335-9.112,9.285-13.798l14.753,8.678c-3.124,5.12-6.769,10.153-10.327,15.013
		L418.278,345.47z M49.985,316.138c-2.777-5.294-5.294-10.847-7.55-16.401l15.967-6.595c2.196,5.094,4.539,10.127,7.029,15.1
		L49.985,316.138z M436.936,314.316l-15.534-7.723c2.517-5.033,4.773-10.153,6.856-15.186l16.054,6.422
		C442.576,303.729,439.626,308.936,436.936,314.316z M36.187,282.815c-1.822-5.727-3.384-11.628-4.773-17.356l17.356-3.905
		c1.302,5.38,2.69,10.761,4.426,16.054L36.187,282.815z M450.386,280.819l-16.488-5.12c1.562-5.207,3.037-10.674,4.165-16.054
		l17.356,3.645C453.684,269.017,452.122,275.092,450.386,280.819z M28.203,247.582c-0.868-5.901-1.475-11.976-1.822-17.963
		l17.356-1.041c0,5.554,0.868,11.108,1.649,16.575L28.203,247.582z M458.023,245.5l-17.356-2.256
		c0.694-5.467,1.215-11.021,1.475-16.575l17.356,0.868C459.412,233.524,458.804,239.599,458.023,245.5z M43.39,211.916H26.034
		c0-6.075,0.521-12.149,1.128-18.05l17.356,1.822C43.911,200.808,43.39,206.449,43.39,211.916z M442.576,210.094
		c0-5.554-0.607-11.195-1.302-16.662l17.356-1.996c0.694,5.988,1.128,11.976,1.388,18.05L442.576,210.094z M47.035,178.94
		l-17.356-3.298c1.128-5.901,2.603-11.802,4.165-17.356l16.748,4.686C49.378,168.092,48.076,173.559,47.035,178.94z
		 M438.584,177.031c-1.128-5.38-2.43-10.761-3.992-16.141l16.662-4.686c1.736,5.814,3.124,11.715,4.339,17.356L438.584,177.031z
		 M55.973,147.005l-16.228-6.161c2.083-5.554,4.426-11.108,7.029-16.575l15.707,7.376C60.164,136.444,57.995,141.564,55.973,147.005
		z M429.125,145.182c-1.996-5.12-4.252-10.24-6.595-15.273l15.62-7.55c2.603,5.38,5.033,11.021,7.116,16.575L429.125,145.182z
		 M70.205,116.892l-15.013-8.678c3.037-5.12,6.248-10.327,9.719-15.273l14.232,9.98C76.019,107.433,72.982,112.206,70.205,116.892z
		 M414.807,115.33c-2.777-4.773-5.901-9.459-8.678-13.972l14.145-10.066c3.558,4.946,6.856,9.98,9.893,15.186L414.807,115.33z
		 M89.209,89.296L75.845,78.275c3.818-4.599,7.897-9.112,12.149-13.451l12.41,12.149c-3.905,4.339-7.637,8.504-11.195,12.67V89.296z
		 M395.542,87.908c-3.558-4.252-7.289-8.678-11.281-12.236l12.323-11.889c4.252,4.252,8.678,8.678,12.236,13.277L395.542,87.908z
		 M112.814,65.953l-11.715-13.191c4.599-3.905,9.285-7.637,14.145-11.195l10.24,13.972
		C121.492,58.837,116.632,62.308,112.814,65.953z M372.458,64.738c-4.252-3.558-8.678-7.029-13.104-10.24l10.066-14.145
		c4.946,3.558,9.719,7.289,14.232,11.108L372.458,64.738z M139.281,46.34l-9.112-14.839c5.207-3.124,10.5-6.075,15.794-8.678
		l7.81,15.534C148.914,40.847,144.08,43.503,139.281,46.34z M345.036,45.386c-4.686-2.777-9.633-5.467-14.579-7.897l7.984-15.62
		c5.467,2.69,10.847,5.554,15.967,8.678L345.036,45.386z M169.047,31.501l-6.508-16.141c5.641-2.169,11.368-4.252,17.356-5.988
		l4.773,16.662C179.46,27.596,174.167,29.505,169.047,31.501z M315.184,30.807c-5.12-1.996-10.414-3.732-15.707-5.38l4.86-16.748
		c5.814,1.649,11.542,3.645,17.356,5.814L315.184,30.807z M200.808,22.129l-3.732-16.922c5.901-1.31,11.871-2.326,17.877-3.037
		l2.169,17.356c-5.467,0.174-10.934,1.128-16.315,2.256V22.129z M283.336,22.129c-5.467-1.128-10.934-1.996-16.401-2.69
		l2.083-17.356c5.901,0.694,11.889,1.649,17.356,2.864L283.336,22.129z M233.698,17.356L232.917,0c5.988,0,12.062,0,18.05,0
		l-0.607,17.356C244.805,17.356,239.252,17.356,233.698,17.356z"/>
</g>
<path style="fill:#D9D9D9;" d="M208.271,477.288h69.424l0,0l0,0c0,19.17-15.542,34.712-34.712,34.712l0,0
	C223.813,512,208.271,496.458,208.271,477.288L208.271,477.288L208.271,477.288z"/>
<g>
	<rect x="208.271" y="347.119" style="fill:#3582BD;" width="17.356" height="60.746"/>
	<rect x="260.339" y="355.797" style="fill:#3582BD;" width="17.356" height="52.068"/>
</g>
<g>
	<path style="fill:#D9D9D9;" d="M182.237,451.254c0,14.379,11.655,26.034,26.034,26.034h69.424
		c14.379,0,26.034-11.655,26.034-26.034v-8.678H182.237V451.254z"/>
	<rect x="182.237" y="407.864" style="fill:#D9D9D9;" width="121.492" height="34.712"/>
</g>
<g>
	<path style="fill:#D1D1D1;" d="M303.729,407.864h-26.034c-14.536,14.761-31.805,26.555-50.853,34.712h76.887V407.864z"/>
	<path style="fill:#D1D1D1;" d="M277.695,442.576c-14.536,14.761-31.805,26.555-50.853,34.712h50.853
		c14.379,0,26.034-11.655,26.034-26.034v-8.678H277.695z"/>
</g>
<path style="fill:#87CED9;" d="M251.661,260.339l26.034,69.424h8.678c39.667-0.009,72.93-29.974,77.06-69.424l0,0H251.661z"/>
<path style="fill:#6CBBC7;" d="M261.38,286.373l6.595,17.356h76.279c4.599-5.25,8.478-11.09,11.542-17.356H261.38z"/>
<g>
	<polygon style="fill:#DB6EA2;" points="364.475,182.237 364.475,186.489 364.475,186.576 	"/>
	<path style="fill:#DB6EA2;" d="M364.475,188.833v-2.343c-0.095-26.303-21.426-47.599-47.729-47.642
		c-3.601,0.026-7.185,0.486-10.674,1.388h-0.694c-1.527,0.286-3.029,0.66-4.513,1.128l0,0c-0.538,0.226-1.059,0.486-1.562,0.781
		c-12.453-31.154-47.798-46.314-78.952-33.861c-15.447,6.17-27.683,18.415-33.861,33.861l0,0
		c-24.368-9.676-51.964,2.23-61.64,26.598c-3.341,8.418-4.209,17.616-2.491,26.511c-16.775,9.277-22.849,30.399-13.572,47.173
		c6.057,10.952,17.547,17.798,30.06,17.911H342.78c21.565-0.009,39.042-17.503,39.034-39.068
		C381.805,208.245,375.305,196.079,364.475,188.833z"/>
</g>
<path style="fill:#D46198;" d="M364.475,188.833v-2.343c0.095-18.649-10.735-35.614-27.683-43.39
	c-5.632,40.708-17.634,80.271-35.58,117.239h41.567c21.565-0.009,39.042-17.503,39.034-39.068
	C381.805,208.245,375.305,196.079,364.475,188.833z"/>
<g>
	<path style="fill:#C95994;" d="M373.153,184.494v-2.256l0,0c-2.222-29.366-26.693-52.059-56.146-52.068
		c-4.304,0.069-8.583,0.625-12.757,1.649c-18.302-33.697-60.451-46.175-94.139-27.874c-11.785,6.404-21.469,16.08-27.874,27.874
		c-4.261-1.05-8.626-1.605-13.017-1.649c-31.137,0.052-56.355,25.27-56.407,56.407c0,1.475,0,2.864,0,4.339
		c-19.17,14.379-23.057,41.576-8.678,60.746c8.192,10.926,21.053,17.356,34.712,17.356H342.78
		c26.364-0.017,47.72-21.4,47.703-47.755C390.474,207.039,384.121,193.553,373.153,184.494z M342.78,251.661h-82.441
		c-16.775,0-30.373-13.598-30.373-30.373s13.598-30.373,30.373-30.373v-17.356c-26.338,0.052-47.677,21.391-47.729,47.729
		c-0.026,11.09,3.844,21.842,10.934,30.373h-23.951c0-23.96-19.43-43.39-43.39-43.39v17.356c14.379,0,26.034,11.655,26.034,26.034
		h-43.39c-14.379,0-26.034-11.655-26.034-26.034c0-14.379,11.655-26.034,26.034-26.034v-17.356c-2.916,0-5.823,0.286-8.678,0.868
		c1.805-20.202,18.77-35.658,39.051-35.58c4.808-0.017,9.572,0.868,14.058,2.603c5.363,2.135,10.188,5.424,14.145,9.633
		c-4.244,6.734-6.5,14.518-6.508,22.476h17.356c0-14.379,11.655-26.034,26.034-26.034v-17.356
		c-9.034,0.035-17.833,2.881-25.166,8.157c-3.22-3.324-6.838-6.231-10.761-8.678c14.831-24.637,46.826-32.577,71.463-17.746
		c15.551,9.364,25.105,26.147,25.209,44.301h17.356c-0.009-5.684-0.738-11.333-2.169-16.835c2.152-0.347,4.33-0.521,6.508-0.521
		c21.53,0,38.999,17.434,39.051,38.964v2.343c0,2.89,1.423,5.589,3.818,7.203c13.945,9.32,17.694,28.186,8.374,42.132
		C362.366,246.584,352.907,251.644,342.78,251.661z"/>
	<path style="fill:#C95994;" d="M295.051,182.237v17.356c14.379,0,26.034,11.655,26.034,26.034h17.356
		C338.441,201.667,319.011,182.237,295.051,182.237z"/>
</g>
<g>
	<rect x="182.237" y="433.898" style="fill:#D1D1D1;" width="121.492" height="8.678"/>
	<path style="fill:#D1D1D1;" d="M276.48,485.966c0.764-2.829,1.172-5.745,1.215-8.678h-69.424c0.043,2.933,0.451,5.849,1.215,8.678
		H276.48z"/>
</g>
<g>
</g>
<g>
</g>
<g>
</g>
<g>
</g>
<g>
</g>
<g>
</g>
<g>
</g>
<g>
</g>
<g>
</g>
<g>
</g>
<g>
</g>
<g>
</g>
<g>
</g>
<g>
</g>
<g>
</g>
</svg>
